# Blender v2.79 (sub 0) OBJ File: 'mycow.blend'
# www.blender.org
mtllib mycow.mtl
o Cube
v 1.000000 -0.621439 -1.000000
v 1.000000 -0.621439 1.000000
v -1.000000 -0.621439 1.000000
v -1.000000 -0.621439 -1.000000
v 1.000000 0.724069 -0.999999
v 0.999999 0.724069 1.000001
v -1.000000 0.724069 1.000000
v -1.000000 0.724069 -1.000000
v 0.608696 -0.621439 -1.000000
v 0.608696 -0.621439 1.000000
v 0.155025 0.664878 -1.000000
v 0.341455 0.821677 1.000000
v -0.533191 -0.621439 -1.000000
v -0.533191 -0.621439 1.000000
v -0.079520 0.664878 -1.000000
v -0.265952 0.821677 1.000000
v 1.000000 -0.621439 0.000000
v -1.000000 -0.621439 -0.000000
v 1.000000 0.724069 0.000001
v -1.000000 0.724069 -0.000000
v 0.608696 1.000000 0.000000
v 0.608696 -1.000000 -0.000000
v -0.533191 1.000000 0.000000
v -0.533191 -1.000000 -0.000000
v -1.000000 -0.621439 -0.500000
v -1.000000 0.724069 -0.500000
v 0.608696 -1.000000 -0.500000
v -0.533191 -1.000000 -0.500000
v 1.000000 -0.621439 -0.500000
v 1.000000 0.724069 -0.499999
v 0.608696 1.000000 -0.500000
v -0.533191 1.000000 -0.500000
v 1.000000 -0.621439 0.500000
v 1.000000 0.724069 0.500001
v 0.608695 1.000000 0.500000
v -0.533191 1.000000 0.500000
v -1.000000 -0.621439 0.500000
v -1.000000 0.724069 0.500000
v 0.608696 -1.000000 0.500000
v -0.533191 -1.000000 0.500000
v 1.000000 0.367797 -1.000000
v 1.000000 0.367797 1.000000
v -1.000000 0.367797 1.000000
v -1.000000 0.367797 -1.000000
v 0.155025 0.426988 -1.000000
v 0.341456 0.270189 1.000000
v -0.079520 0.426988 -1.000000
v -0.265952 0.270189 1.000000
v -1.000000 0.367797 -0.000000
v 1.000000 0.367797 0.000000
v 1.000000 0.367797 -0.500000
v -1.000000 0.367797 -0.500000
v -1.000000 0.367797 0.500000
v 1.000000 0.367797 0.500000
v 1.000000 -2.051555 -1.000000
v 0.608696 -2.051555 -1.000000
v 0.608696 -2.051555 -0.500000
v 1.000000 -2.051555 -0.500000
v -0.533191 -2.051555 -1.000000
v -1.000000 -2.051555 -1.000000
v -1.000000 -2.051555 -0.500000
v -0.533191 -2.051555 -0.500000
v -0.533191 -2.051555 1.000000
v -1.000000 -2.051555 1.000000
v -1.000000 -2.051555 0.500000
v -0.533191 -2.051555 0.500000
v 1.000000 -2.051555 0.500000
v 1.000000 -2.051555 1.000000
v 0.608696 -2.051555 1.000000
v 0.608696 -2.051555 0.500000
v 0.341455 1.350245 1.785476
v -0.265953 1.350245 1.785476
v 0.341455 0.798757 1.785476
v -0.265952 0.798757 1.785476
v 0.408453 1.411075 1.970982
v -0.332951 1.411075 1.970982
v 0.408453 0.737927 1.970982
v -0.332951 0.737927 1.970982
v 0.408452 1.411075 2.378433
v -0.332951 1.411075 2.378433
v 0.408452 0.737927 2.378433
v -0.332951 0.737927 2.378433
v 0.299802 1.248551 2.592280
v -0.224301 1.248551 2.592279
v 0.299803 0.772697 2.592280
v -0.224301 0.772697 2.592279
v 0.590981 -0.765003 -1.416718
v 0.595167 -0.619449 -1.604836
v 0.368517 -0.664627 -1.644836
v 0.364330 -0.810182 -1.456718
vn 0.0000 0.0000 1.0000
vn -0.1214 0.9126 0.3903
vn 1.0000 0.0000 0.0000
vn -1.0000 -0.0000 -0.0000
vn 0.0000 0.0000 -1.0000
vn 0.5763 0.8172 0.0000
vn 0.0000 0.8296 -0.5583
vn -0.0000 0.9419 0.3359
vn -0.0000 -0.7973 0.6036
vn 0.0000 -1.0000 0.0000
vn 0.0000 1.0000 0.0000
vn 0.6953 -0.7187 0.0000
vn -0.5089 0.8609 -0.0000
vn -0.6299 -0.7767 0.0000
vn 0.0548 0.8517 -0.5212
vn 0.0000 0.8307 -0.5568
vn 0.0000 -0.7973 -0.6036
vn -0.9412 -0.2566 -0.2195
vn -0.9405 -0.0000 -0.3397
vn -0.0000 -0.8296 0.5583
vn 0.0000 0.9502 -0.3116
vn 0.0000 -0.9502 -0.3116
vn 0.9405 0.0000 -0.3397
vn -0.0000 -0.9870 0.1605
vn 0.8915 -0.0000 0.4530
vn -0.8915 -0.0000 0.4530
vn -0.0000 0.7962 0.6051
vn 0.2567 -0.7672 -0.5879
vn 0.0000 0.4364 -0.8998
vn -0.0925 -0.3586 0.9289
vn 0.8086 -0.0000 0.5884
vn 0.1346 0.9084 0.3959
vn -0.0598 0.8534 -0.5178
vn -0.8212 0.0000 -0.5706
vn 0.0691 0.4443 -0.8932
vn -0.0000 -0.3463 0.9381
vn 0.9378 0.2642 0.2253
usemtl Material
s off
f 3//1 63//1 14//1
f 36//2 7//2 16//2
f 34//3 42//3 54//3
f 16//1 43//1 48//1
f 52//4 8//4 44//4
f 13//5 44//5 47//5
f 41//5 9//5 45//5
f 6//1 46//1 42//1
f 35//6 6//6 34//6
f 10//1 68//1 2//1
f 9//5 47//5 45//5
f 16//7 71//7 12//7
f 35//8 16//8 12//8
f 10//9 40//9 39//9
f 27//10 24//10 28//10
f 32//11 21//11 31//11
f 29//12 22//12 27//12
f 31//6 19//6 30//6
f 53//4 20//4 49//4
f 30//3 50//3 51//3
f 26//13 23//13 32//13
f 24//14 25//14 28//14
f 13//5 60//5 4//5
f 8//15 32//15 15//15
f 5//3 51//3 41//3
f 5//6 31//6 30//6
f 1//5 56//5 9//5
f 11//16 32//16 31//16
f 9//17 28//17 13//17
f 49//4 26//4 52//4
f 7//4 53//4 43//4
f 39//10 24//10 22//10
f 23//11 35//11 21//11
f 17//12 39//12 22//12
f 21//6 34//6 19//6
f 19//3 54//3 50//3
f 20//13 36//13 23//13
f 40//14 18//14 24//14
f 50//3 33//3 17//3
f 43//4 37//4 3//4
f 49//4 25//4 18//4
f 41//3 29//3 1//3
f 51//3 17//3 29//3
f 53//4 18//4 37//4
f 46//1 14//1 10//1
f 47//18 89//18 90//18
f 42//1 10//1 2//1
f 41//5 11//5 5//5
f 15//5 44//5 8//5
f 52//4 4//4 25//4
f 14//1 43//1 3//1
f 54//3 2//3 33//3
f 58//10 56//10 55//10
f 27//1 58//1 29//1
f 27//4 56//4 57//4
f 29//3 55//3 1//3
f 62//10 60//10 59//10
f 28//1 61//1 62//1
f 4//4 61//4 25//4
f 28//3 59//3 13//3
f 63//10 65//10 66//10
f 40//3 63//3 66//3
f 37//4 64//4 3//4
f 40//5 65//5 37//5
f 67//10 69//10 70//10
f 2//3 67//3 33//3
f 39//4 69//4 10//4
f 39//5 67//5 70//5
f 74//19 76//19 72//19
f 48//20 73//20 74//20
f 16//4 74//4 72//4
f 12//3 73//3 46//3
f 78//4 80//4 76//4
f 72//21 75//21 71//21
f 73//22 78//22 74//22
f 71//23 77//23 73//23
f 81//24 86//24 82//24
f 75//11 80//11 79//11
f 78//10 81//10 82//10
f 75//3 81//3 77//3
f 83//1 86//1 85//1
f 81//25 83//25 85//25
f 82//26 84//26 80//26
f 79//27 84//27 83//27
f 87//28 89//28 88//28
f 11//29 89//29 15//29
f 45//30 90//30 87//30
f 45//31 88//31 11//31
f 3//1 64//1 63//1
f 36//13 38//13 7//13
f 34//3 6//3 42//3
f 16//1 7//1 43//1
f 52//4 26//4 8//4
f 13//5 4//5 44//5
f 41//5 1//5 9//5
f 6//1 12//1 46//1
f 35//32 12//32 6//32
f 10//1 69//1 68//1
f 9//5 13//5 47//5
f 16//7 72//7 71//7
f 35//8 36//8 16//8
f 10//9 14//9 40//9
f 27//10 22//10 24//10
f 32//11 23//11 21//11
f 29//12 17//12 22//12
f 31//6 21//6 19//6
f 53//4 38//4 20//4
f 30//3 19//3 50//3
f 26//13 20//13 23//13
f 24//14 18//14 25//14
f 13//5 59//5 60//5
f 8//13 26//13 32//13
f 5//3 30//3 51//3
f 5//33 11//33 31//33
f 1//5 55//5 56//5
f 11//16 15//16 32//16
f 9//17 27//17 28//17
f 49//4 20//4 26//4
f 7//4 38//4 53//4
f 39//10 40//10 24//10
f 23//11 36//11 35//11
f 17//12 33//12 39//12
f 21//6 35//6 34//6
f 19//3 34//3 54//3
f 20//13 38//13 36//13
f 40//14 37//14 18//14
f 50//3 54//3 33//3
f 43//4 53//4 37//4
f 49//4 52//4 25//4
f 41//3 51//3 29//3
f 51//3 50//3 17//3
f 53//4 49//4 18//4
f 46//1 48//1 14//1
f 47//34 15//34 89//34
f 42//1 46//1 10//1
f 41//5 45//5 11//5
f 15//5 47//5 44//5
f 52//4 44//4 4//4
f 14//1 48//1 43//1
f 54//3 42//3 2//3
f 58//10 57//10 56//10
f 27//1 57//1 58//1
f 27//4 9//4 56//4
f 29//3 58//3 55//3
f 62//10 61//10 60//10
f 28//1 25//1 61//1
f 4//4 60//4 61//4
f 28//3 62//3 59//3
f 63//10 64//10 65//10
f 40//3 14//3 63//3
f 37//4 65//4 64//4
f 40//5 66//5 65//5
f 67//10 68//10 69//10
f 2//3 68//3 67//3
f 39//4 70//4 69//4
f 39//5 33//5 67//5
f 74//19 78//19 76//19
f 48//20 46//20 73//20
f 16//4 48//4 74//4
f 12//3 71//3 73//3
f 78//4 82//4 80//4
f 72//21 76//21 75//21
f 73//22 77//22 78//22
f 71//23 75//23 77//23
f 81//24 85//24 86//24
f 75//11 76//11 80//11
f 78//10 77//10 81//10
f 75//3 79//3 81//3
f 83//1 84//1 86//1
f 81//25 79//25 83//25
f 82//26 86//26 84//26
f 79//27 80//27 84//27
f 87//28 90//28 89//28
f 11//35 88//35 89//35
f 45//36 47//36 90//36
f 45//37 87//37 88//37
